{"glyphs":{":":{"x_min":0,"x_max":600,"ha":600,"o":"m 610 322 l 356 322 l 356 939 l 411 939 l 411 378 l 610 378 z m 246 -290 l 191 -290 l 191 939 l 246 939 z m 610 155 l 411 155 l 411 -290 l 356 -290 l 356 210 l 610 210 z"},"$":{"x_min":0,"x_max":600,"ha":600,"o":"m 610 -290 l -10 -290 l -10 914 l 610 914 z"},"?":{"x_min":0,"x_max":600,"ha":600,"o":"m 609 155 l 328 155 l 328 -290 l 272 -290 l 272 378 l 610 378 l 610 322 l 328 322 l 328 210 l 610 210 z"},"<":{"x_min":0,"x_max":600,"ha":600,"o":"m 246 322 l -10 322 l -10 378 l 191 378 l 191 939 l 246 939 z m 411 -290 l 356 -290 l 356 939 l 411 939 z m 246 -290 l 191 -290 l 191 155 l -10 155 l -10 210 l 246 210 z"},"'":{"x_min":0,"x_max":600,"ha":600,"o":"m 610 -290 l 300 -290 l 300 914 l 610 914 z"},"=":{"x_min":0,"x_max":600,"ha":600,"o":"m 610 322 l 356 322 l 356 939 l 411 939 l 411 378 l 610 378 z m 246 322 l -10 322 l -10 378 l 191 378 l 191 939 l 246 939 z m 610 155 l -10 155 l -10 210 l 610 210 z"},"a":{"x_min":0,"x_max":600,"ha":600,"o":"m 609 155 l 328 155 l 328 -290 l 272 -290 l 272 238 l -10 238 l -10 292 l 272 292 l 272 378 l 610 378 l 610 322 l 328 322 l 328 210 l 610 210 z"},"L":{"x_min":0,"x_max":600,"ha":600,"o":"m 610 322 l -10 322 l -10 378 l 610 378 z m 610 155 l 328 155 l 328 -290 l 272 -290 l 272 155 l -10 155 l -10 210 l 610 210 z"},"3":{"x_min":0,"x_max":600,"ha":600,"o":"m 610 238 l 328 238 l 328 -290 l 272 -290 l 272 238 l -10 238 l -10 292 l 272 292 l 272 939 l 328 939 l 328 292 l 610 292 z"},";":{"x_min":0,"x_max":600,"ha":600,"o":"m 610 322 l -10 322 l -10 378 l 610 378 z m 610 155 l 411 155 l 411 -290 l 356 -290 l 356 210 l 610 210 z m 246 -290 l 191 -290 l 191 155 l -10 155 l -10 210 l 246 210 z"},"J":{"x_min":0,"x_max":600,"ha":600,"o":"m 610 238 l -10 238 l -10 292 l 191 292 l 191 939 l 246 939 l 246 292 l 356 292 l 356 939 l 411 939 l 411 292 l 610 292 z"},"V":{"x_min":0,"x_max":600,"ha":600,"o":"m 411 299 l 356 299 l 356 939 l 411 939 z m 246 299 l 191 299 l 191 939 l 246 939 z"},"\"":{"x_min":0,"x_max":600,"ha":600,"o":"m 600 622 l 511 622 l 511 652 l 600 652 z m 422 734 l 335 734 l 335 762 l 422 762 z m 600 388 l 511 388 l 511 418 l 600 418 z m 422 511 l 335 511 l 335 540 l 422 540 z m 248 628 l 159 628 l 159 658 l 248 658 z m 88 734 l 0 734 l 0 762 l 88 762 z m 600 152 l 511 152 l 511 182 l 600 182 z m 422 276 l 335 276 l 335 305 l 422 305 z m 248 392 l 159 392 l 159 422 l 248 422 z m 88 511 l 0 511 l 0 540 l 88 540 z m 600 -82 l 511 -82 l 511 -54 l 600 -54 z m 422 40 l 335 40 l 335 70 l 422 70 z m 248 158 l 159 158 l 159 188 l 248 188 z m 88 276 l 0 276 l 0 305 l 88 305 z m 422 -165 l 335 -165 l 335 -136 l 422 -136 z m 248 -78 l 159 -78 l 159 -48 l 248 -48 z m 88 40 l 0 40 l 0 70 l 88 70 z m 88 -165 l 0 -165 l 0 -136 l 88 -136 z"},"7":{"x_min":0,"x_max":600,"ha":600,"o":"m 411 -290 l 356 -290 l 356 322 l -10 322 l -10 378 l 411 378 z m 246 -290 l 191 -290 l 191 155 l -10 155 l -10 210 l 246 210 z"},"S":{"x_min":0,"x_max":600,"ha":600,"o":"m 605 238 l 300 238 l 300 292 l 605 292 z"},"}":{"x_min":0,"x_max":600,"ha":600,"o":""},"Z":{"x_min":0,"x_max":600,"ha":600,"o":"m 610 238 l 328 238 l 328 155 l -10 155 l -10 210 l 272 210 l 272 322 l -10 322 l -10 378 l 328 378 l 328 292 l 610 292 z"},"x":{"x_min":0,"x_max":600,"ha":600,"o":"m 610 322 l 356 322 l 356 939 l 411 939 l 411 378 l 610 378 z m 246 322 l -10 322 l -10 378 l 191 378 l 191 939 l 246 939 z m 610 155 l 328 155 l 328 -290 l 272 -290 l 272 155 l -10 155 l -10 210 l 610 210 z"},")":{"x_min":0,"x_max":600,"ha":600,"o":"m 605 238 l -4 238 l -4 292 l 605 292 z"},"&":{"x_min":0,"x_max":600,"ha":600,"o":"m 610 299 l -10 299 l -10 914 l 610 914 z"},"_":{"x_min":0,"x_max":600,"ha":600,"o":"m 610 238 l 328 238 l 328 -290 l 272 -290 l 272 238 l 191 238 l 191 939 l 246 939 l 246 292 l 356 292 l 356 939 l 411 939 l 411 292 l 610 292 z"},"v":{"x_min":0,"x_max":600,"ha":600,"o":"m 246 322 l -10 322 l -10 378 l 191 378 l 191 939 l 246 939 z m 610 238 l 411 238 l 411 155 l 328 155 l 328 -290 l 272 -290 l 272 155 l -10 155 l -10 210 l 356 210 l 356 939 l 411 939 l 411 292 l 610 292 z"},"O":{"x_min":0,"x_max":600,"ha":600,"o":"m 610 238 l 411 238 l 411 -290 l 356 -290 l 356 238 l 246 238 l 246 -290 l 191 -290 l 191 238 l -10 238 l -10 292 l 191 292 l 191 939 l 246 939 l 246 292 l 356 292 l 356 939 l 411 939 l 411 292 l 610 292 z"},"(":{"x_min":0,"x_max":600,"ha":600,"o":"m 610 -290 l -10 -290 l -10 301 l 610 301 z"},"C":{"x_min":0,"x_max":600,"ha":600,"o":"m 610 238 l 411 238 l 411 -290 l 356 -290 l 356 238 l 246 238 l 246 -290 l 191 -290 l 191 292 l 610 292 z"},"W":{"x_min":0,"x_max":600,"ha":600,"o":"m 610 322 l 300 322 l 300 378 l 610 378 z m 610 155 l 300 155 l 300 210 l 610 210 z"},"A":{"x_min":0,"x_max":600,"ha":600,"o":"m 328 155 l -10 155 l -10 210 l 272 210 l 272 322 l -10 322 l -10 378 l 272 378 l 272 939 l 328 939 z"},"f":{"x_min":0,"x_max":600,"ha":600,"o":"m 411 238 l 328 238 l 328 -290 l 272 -290 l 272 238 l -10 238 l -10 292 l 191 292 l 191 939 l 246 939 l 246 292 l 356 292 l 356 939 l 411 939 z"},"Q":{"x_min":0,"x_max":600,"ha":600,"o":"m 300 238 l -10 238 l -10 292 l 300 292 z"},"w":{"x_min":0,"x_max":600,"ha":600,"o":"m 610 238 l 411 238 l 411 -290 l 356 -290 l 356 939 l 411 939 l 411 292 l 610 292 z m 246 322 l -10 322 l -10 378 l 191 378 l 191 939 l 246 939 z m 246 -290 l 191 -290 l 191 155 l -10 155 l -10 210 l 246 210 z"},"-":{"x_min":0,"x_max":600,"ha":600,"o":"m 328 238 l -10 238 l -10 292 l 272 292 l 272 939 l 328 939 z"},"E":{"x_min":0,"x_max":600,"ha":600,"o":"m 411 238 l -10 238 l -10 292 l 191 292 l 191 939 l 246 939 l 246 292 l 356 292 l 356 939 l 411 939 z"},"s":{"x_min":0,"x_max":600,"ha":600,"o":"m 610 238 l 328 238 l 328 -290 l 272 -290 l 272 155 l -10 155 l -10 210 l 272 210 l 272 322 l -10 322 l -10 378 l 272 378 l 272 939 l 328 939 l 328 292 l 610 292 z"},">":{"x_min":0,"x_max":600,"ha":600,"o":"m 610 322 l 356 322 l 356 939 l 411 939 l 411 378 l 610 378 z m 246 322 l -10 322 l -10 378 l 191 378 l 191 939 l 246 939 z m 610 155 l 411 155 l 411 -290 l 356 -290 l 356 210 l 610 210 z m 246 -290 l 191 -290 l 191 155 l -10 155 l -10 210 l 246 210 z"},"l":{"x_min":0,"x_max":600,"ha":600,"o":"m 610 238 l 411 238 l 411 155 l -10 155 l -10 210 l 356 210 l 356 939 l 411 939 l 411 292 l 610 292 z m 246 322 l -10 322 l -10 378 l 191 378 l 191 939 l 246 939 z"},"8":{"x_min":0,"x_max":600,"ha":600,"o":"m 246 322 l -10 322 l -10 378 l 191 378 l 191 939 l 246 939 z m 411 155 l -10 155 l -10 210 l 356 210 l 356 939 l 411 939 z"},"\\":{"x_min":0,"x_max":600,"ha":600,"o":"m 411 238 l 328 238 l 328 -290 l 272 -290 l 272 238 l 191 238 l 191 939 l 246 939 l 246 292 l 356 292 l 356 939 l 411 939 z"},"e":{"x_min":0,"x_max":600,"ha":600,"o":"m 411 -290 l 356 -290 l 356 238 l 246 238 l 246 -290 l 191 -290 l 191 238 l -10 238 l -10 292 l 272 292 l 272 939 l 328 939 l 328 292 l 411 292 z"},"b":{"x_min":0,"x_max":600,"ha":600,"o":"m 610 155 l 411 155 l 411 -290 l 356 -290 l 356 210 l 610 210 z m 610 322 l 246 322 l 246 -290 l 191 -290 l 191 238 l -10 238 l -10 292 l 191 292 l 191 378 l 610 378 z"},"%":{"x_min":0,"x_max":600,"ha":600,"o":"m 300 -290 l -10 -290 l -10 914 l 300 914 z"},"m":{"x_min":0,"x_max":600,"ha":600,"o":"m 610 238 l 411 238 l 411 -290 l 356 -290 l 356 238 l 246 238 l 246 -290 l 191 -290 l 191 238 l -10 238 l -10 292 l 272 292 l 272 939 l 328 939 l 328 292 l 610 292 z"},"#":{"x_min":0,"x_max":600,"ha":600,"o":"m 600 734 l 488 734 l 488 762 l 600 762 z m 494 616 l 376 616 l 376 646 l 494 646 z m 600 505 l 488 505 l 488 534 l 600 534 z m 352 734 l 241 734 l 241 762 l 352 762 z m 494 392 l 394 392 l 394 422 l 494 422 z m 600 281 l 488 281 l 488 311 l 600 311 z m 352 505 l 241 505 l 241 534 l 352 534 z m 118 734 l 0 734 l 0 762 l 118 762 z m 222 622 l 100 622 l 100 652 l 222 652 z m 494 164 l 376 164 l 376 192 l 494 192 z m 600 58 l 488 58 l 488 88 l 600 88 z m 352 281 l 241 281 l 241 311 l 352 311 z m 118 505 l 0 505 l 0 534 l 118 534 z m 222 399 l 100 399 l 100 428 l 222 428 z m 600 -165 l 488 -165 l 488 -136 l 600 -136 z m 494 -65 l 376 -65 l 376 -36 l 494 -36 z m 135 281 l 18 281 l 18 311 l 135 311 z m 352 58 l 241 58 l 241 88 l 352 88 z m 229 170 l 118 170 l 118 199 l 229 199 z m 352 -165 l 241 -165 l 241 -136 l 352 -136 z m 118 58 l 0 58 l 0 88 l 118 88 z m 222 -59 l 100 -59 l 100 -30 l 222 -30 z m 118 -165 l 0 -165 l 0 -136 l 118 -136 z"},",":{"x_min":0,"x_max":600,"ha":600,"o":"m 328 -290 l 272 -290 l 272 238 l -10 238 l -10 292 l 328 292 z"},"n":{"x_min":0,"x_max":600,"ha":600,"o":"m 610 322 l 246 322 l 246 -290 l 191 -290 l 191 238 l -10 238 l -10 292 l 191 292 l 191 378 l 272 378 l 272 939 l 328 939 l 328 378 l 610 378 z m 610 155 l 411 155 l 411 -290 l 356 -290 l 356 210 l 610 210 z"},"h":{"x_min":0,"x_max":600,"ha":600,"o":"m 246 322 l -10 322 l -10 378 l 191 378 l 191 939 l 246 939 z m 411 155 l 328 155 l 328 -292 l 272 -292 l 272 155 l -10 155 l -10 210 l 356 210 l 356 939 l 411 939 z"},"z":{"x_min":0,"x_max":600,"ha":600,"o":""},"B":{"x_min":0,"x_max":600,"ha":600,"o":"m 610 155 l 272 155 l 272 939 l 328 939 l 328 378 l 610 378 l 610 322 l 328 322 l 328 210 l 610 210 z"},"K":{"x_min":0,"x_max":600,"ha":600,"o":"m 610 238 l 411 238 l 411 -290 l 356 -290 l 356 939 l 411 939 l 411 292 l 610 292 z m 246 -290 l 191 -290 l 191 939 l 246 939 z"},"R":{"x_min":0,"x_max":600,"ha":600,"o":"m 328 299 l 272 299 l 272 939 l 328 939 z"},"T":{"x_min":0,"x_max":600,"ha":600,"o":"m 328 -290 l 272 -290 l 272 299 l 328 299 z"},"P":{"x_min":0,"x_max":600,"ha":600,"o":"m 610 155 l 328 155 l 328 -290 l 272 -290 l 272 155 l -10 155 l -10 210 l 272 210 l 272 322 l -10 322 l -10 378 l 272 378 l 272 939 l 328 939 l 328 378 l 610 378 l 610 322 l 328 322 l 328 210 l 610 210 z"},"|":{"x_min":0,"x_max":600,"ha":600,"o":""},"t":{"x_min":0,"x_max":600,"ha":600,"o":"m 610 238 l 411 238 l 411 -290 l 356 -290 l 356 322 l -10 322 l -10 378 l 272 378 l 272 939 l 328 939 l 328 378 l 411 378 l 411 292 l 610 292 z m 246 -290 l 191 -290 l 191 155 l -10 155 l -10 210 l 246 210 z"},"M":{"x_min":0,"x_max":600,"ha":600,"o":"m 411 -290 l 356 -290 l 356 939 l 411 939 z m 246 -290 l 191 -290 l 191 238 l -12 238 l -12 292 l 191 292 l 191 939 l 246 939 z"},"g":{"x_min":0,"x_max":600,"ha":600,"o":"m 411 -292 l 356 -292 l 356 322 l -10 322 l -10 378 l 272 378 l 272 939 l 328 939 l 328 378 l 411 378 z m 246 -292 l 191 -292 l 191 155 l -10 155 l -10 210 l 246 210 z"},"j":{"x_min":0,"x_max":600,"ha":600,"o":"m 610 322 l 356 322 l 356 939 l 411 939 l 411 378 l 610 378 z m 610 155 l 191 155 l 191 238 l -10 238 l -10 292 l 191 292 l 191 939 l 246 939 l 246 210 l 610 210 z"},"i":{"x_min":0,"x_max":600,"ha":600,"o":"m 610 155 l 272 155 l 272 238 l -10 238 l -10 292 l 272 292 l 272 939 l 328 939 l 328 378 l 610 378 l 610 322 l 328 322 l 328 210 l 610 210 z"},"y":{"x_min":0,"x_max":600,"ha":600,"o":""},"@":{"x_min":0,"x_max":600,"ha":600,"o":"m 328 -290 l 272 -290 l 272 155 l -10 155 l -10 210 l 272 210 l 272 322 l -10 322 l -10 378 l 328 378 z"},".":{"x_min":0,"x_max":600,"ha":600,"o":"m 610 238 l 272 238 l 272 939 l 328 939 l 328 292 l 610 292 z"},"p":{"x_min":0,"x_max":600,"ha":600,"o":"m 610 238 l 328 238 l 328 -290 l 272 -290 l 272 238 l -10 238 l -10 292 l 191 292 l 191 939 l 246 939 l 246 292 l 356 292 l 356 939 l 411 939 l 411 292 l 610 292 z"},"X":{"x_min":0,"x_max":600,"ha":600,"o":"m 411 -290 l 356 -290 l 356 299 l 411 299 z m 246 -290 l 191 -290 l 191 299 l 246 299 z"},"*":{"x_min":0,"x_max":600,"ha":600,"o":"m 328 -290 l 272 -290 l 272 939 l 328 939 z"},"Y":{"x_min":0,"x_max":600,"ha":600,"o":"m 610 155 l 272 155 l 272 238 l -10 238 l -10 292 l 272 292 l 272 378 l 610 378 l 610 322 l 328 322 l 328 210 l 610 210 z"},"c":{"x_min":0,"x_max":600,"ha":600,"o":"m 610 238 l 328 238 l 328 -290 l 272 -290 l 272 155 l -10 155 l -10 210 l 272 210 l 272 322 l -10 322 l -10 378 l 328 378 l 328 292 l 610 292 z"},"!":{"x_min":0,"x_max":600,"ha":600,"o":"m 600 622 l 558 622 l 558 652 l 600 652 z m 452 734 l 411 734 l 411 762 l 452 762 z m 600 388 l 558 388 l 558 418 l 600 418 z m 452 511 l 411 511 l 411 540 l 452 540 z m 248 622 l 206 622 l 206 652 l 248 652 z m 41 734 l 0 734 l 0 762 l 41 762 z m 600 152 l 558 152 l 558 182 l 600 182 z m 452 276 l 411 276 l 411 305 l 452 305 z m 248 392 l 206 392 l 206 422 l 248 422 z m 41 511 l 0 511 l 0 540 l 41 540 z m 600 -82 l 558 -82 l 558 -54 l 600 -54 z m 452 40 l 411 40 l 411 70 l 452 70 z m 248 158 l 206 158 l 206 188 l 248 188 z m 41 276 l 0 276 l 0 305 l 41 305 z m 452 -165 l 411 -165 l 411 -136 l 452 -136 z m 248 -78 l 206 -78 l 206 -48 l 248 -48 z m 41 40 l 0 40 l 0 70 l 41 70 z m 41 -165 l 0 -165 l 0 -136 l 41 -136 z"},"/":{"x_min":0,"x_max":600,"ha":600,"o":"m 610 238 l 328 238 l 328 -290 l 272 -290 l 272 939 l 328 939 l 328 292 l 610 292 z"},"[":{"x_min":0,"x_max":600,"ha":600,"o":"m 411 -290 l 356 -290 l 356 238 l 246 238 l 246 -290 l 191 -290 l 191 292 l 272 292 l 272 939 l 328 939 l 328 292 l 411 292 z"},"6":{"x_min":0,"x_max":600,"ha":600,"o":"m 610 155 l 411 155 l 411 -290 l 356 -290 l 356 210 l 610 210 z m 610 322 l 246 322 l 246 -290 l 191 -290 l 191 378 l 610 378 z"},"r":{"x_min":0,"x_max":600,"ha":600,"o":"m 610 322 l 356 322 l 356 939 l 411 939 l 411 378 l 610 378 z m 610 155 l 411 155 l 411 -290 l 356 -290 l 356 210 l 610 210 z m 246 -290 l 191 -290 l 191 238 l -10 238 l -10 292 l 191 292 l 191 939 l 246 939 z"},"2":{"x_min":0,"x_max":600,"ha":600,"o":"m 610 238 l -10 238 l -10 292 l 272 292 l 272 939 l 328 939 l 328 292 l 610 292 z"},"{":{"x_min":0,"x_max":600,"ha":600,"o":""},"9":{"x_min":0,"x_max":600,"ha":600,"o":"m 610 322 l 356 322 l 356 939 l 411 939 l 411 378 l 610 378 z m 610 155 l 191 155 l 191 939 l 246 939 l 246 210 l 610 210 z"}," ":{"x_min":0,"x_max":600,"ha":600,"o":""},"I":{"x_min":0,"x_max":600,"ha":600,"o":"m 328 -290 l 272 -290 l 272 155 l -10 155 l -10 210 l 272 210 l 272 322 l -10 322 l -10 378 l 272 378 l 272 939 l 328 939 z"},"H":{"x_min":0,"x_max":600,"ha":600,"o":"m 610 238 l 411 238 l 411 -290 l 356 -290 l 356 238 l 246 238 l 246 -290 l 191 -290 l 191 238 l -10 238 l -10 292 l 610 292 z"},"4":{"x_min":0,"x_max":600,"ha":600,"o":"m 610 322 l -10 322 l -10 378 l 610 378 z m 610 155 l -10 155 l -10 210 l 610 210 z"},"~":{"x_min":0,"x_max":600,"ha":600,"o":""},"D":{"x_min":0,"x_max":600,"ha":600,"o":"m 411 -290 l 356 -290 l 356 238 l 246 238 l 246 -290 l 191 -290 l 191 238 l -10 238 l -10 292 l 411 292 z"},"^":{"x_min":0,"x_max":600,"ha":600,"o":"m 610 322 l 246 322 l 246 -290 l 191 -290 l 191 378 l 272 378 l 272 939 l 328 939 l 328 378 l 610 378 z m 610 155 l 411 155 l 411 -290 l 356 -290 l 356 210 l 610 210 z"},"0":{"x_min":0,"x_max":600,"ha":600,"o":"m 610 238 l 328 238 l 328 -290 l 272 -290 l 272 238 l -10 238 l -10 292 l 610 292 z"},"F":{"x_min":0,"x_max":600,"ha":600,"o":"m 610 238 l 191 238 l 191 939 l 246 939 l 246 292 l 356 292 l 356 939 l 411 939 l 411 292 l 610 292 z"},"`":{"x_min":0,"x_max":600,"ha":600,"o":"m 610 322 l 356 322 l 356 939 l 411 939 l 411 378 l 610 378 z m 610 155 l 328 155 l 328 -294 l 272 -294 l 272 155 l 191 155 l 191 939 l 246 939 l 246 210 l 610 210 z"},"k":{"x_min":0,"x_max":600,"ha":600,"o":"m 610 238 l 328 238 l 328 155 l -10 155 l -10 210 l 272 210 l 272 322 l -10 322 l -10 378 l 272 378 l 272 939 l 328 939 l 328 292 l 610 292 z"},"u":{"x_min":0,"x_max":600,"ha":600,"o":"m 610 322 l -10 322 l -10 378 l 272 378 l 272 939 l 328 939 l 328 378 l 610 378 z m 610 155 l 411 155 l 411 -290 l 356 -290 l 356 210 l 610 210 z m 246 -290 l 191 -290 l 191 155 l -10 155 l -10 210 l 246 210 z"},"]":{"x_min":0,"x_max":600,"ha":600,"o":"m 610 238 l 411 238 l 411 -290 l 356 -290 l 356 238 l 246 238 l 246 -290 l 191 -290 l 191 292 l 272 292 l 272 939 l 328 939 l 328 292 l 610 292 z"},"U":{"x_min":0,"x_max":600,"ha":600,"o":"m 300 322 l -10 322 l -10 378 l 300 378 z m 300 155 l -10 155 l -10 210 l 300 210 z"},"o":{"x_min":0,"x_max":600,"ha":600,"o":"m 610 155 l 328 155 l 328 -290 l 272 -290 l 272 238 l -10 238 l -10 292 l 272 292 l 272 939 l 328 939 l 328 378 l 610 378 l 610 322 l 328 322 l 328 210 l 610 210 z"},"N":{"x_min":0,"x_max":600,"ha":600,"o":"m 610 322 l -10 322 l -10 378 l 272 378 l 272 939 l 328 939 l 328 378 l 610 378 z m 610 155 l -10 155 l -10 210 l 610 210 z"},"+":{"x_min":0,"x_max":600,"ha":600,"o":"m 610 238 l 328 238 l 328 -290 l 272 -290 l 272 292 l 610 292 z"},"G":{"x_min":0,"x_max":600,"ha":600,"o":"m 610 155 l 328 155 l 328 -290 l 272 -290 l 272 939 l 328 939 l 328 378 l 610 378 l 610 322 l 328 322 l 328 210 l 610 210 z"},"q":{"x_min":0,"x_max":600,"ha":600,"o":"m 610 322 l 356 322 l 356 939 l 411 939 l 411 378 l 610 378 z m 610 155 l 328 155 l 328 -290 l 272 -290 l 272 155 l 191 155 l 191 238 l -10 238 l -10 292 l 191 292 l 191 939 l 246 939 l 246 210 l 610 210 z"},"d":{"x_min":0,"x_max":600,"ha":600,"o":"m 610 238 l 411 238 l 411 -290 l 356 -290 l 356 322 l -10 322 l -10 378 l 411 378 l 411 292 l 610 292 z m 246 -290 l 191 -290 l 191 155 l -10 155 l -10 210 l 246 210 z"},"1":{"x_min":0,"x_max":600,"ha":600,"o":"m 328 -290 l 272 -290 l 272 238 l -10 238 l -10 292 l 272 292 l 272 939 l 328 939 z"},"5":{"x_min":0,"x_max":600,"ha":600,"o":"m 411 -290 l 356 -290 l 356 939 l 411 939 z m 246 -290 l 191 -290 l 191 939 l 246 939 z"}}}
